<?xml version="1.0" encoding="utf-8"?>
<!-- Svg Vector Icons : http://www.onlinewebfonts.com/icon -->
<!DOCTYPE svg PUBLIC "-//W3C//DTD SVG 1.1//EN" "http://www.w3.org/Graphics/SVG/1.1/DTD/svg11.dtd">
<svg version="1.1" xmlns="http://www.w3.org/2000/svg" xmlns:xlink="http://www.w3.org/1999/xlink" x="0px" y="0px" viewBox="0 0 1000 1000" enable-background="new 0 0 1000 1000" xml:space="preserve">
<metadata> Svg Vector Icons : http://www.onlinewebfonts.com/icon </metadata>
<g><path d="M173.3,10c-75,0-122.5,43.2-122.5,122.5v735c0,76.2,41.4,122.5,122.5,122.5h653.3c78.4,0,122.5-49.7,122.5-122.5v-735C949.2,59.8,909,10,826.7,10C641,10,173.3,10,173.3,10z M255,949.2h-81.7c-59.6,0-81.7-28.9-81.7-81.7v-735c0-60.6,30.3-81.7,81.7-81.7H255V949.2z M908.3,867.5c0,53.6-25.9,81.7-81.7,81.7H295.8V50.8h285.8v245l81.7-81.7l81.7,81.7v-245h81.7c55.3,0,81.7,26,81.7,81.7V867.5z"/></g>
</svg>